<?xml version="1.0" encoding="UTF-8"?>
<svg id="Layer_2" data-name="Layer 2" xmlns="http://www.w3.org/2000/svg" viewBox="0 0 16 15.33">
  <defs>
    <style>
      .cls-1 {
        fill: #fcfcfc;
      }

      .cls-2 {
        fill: #111;
      }
    </style>
  </defs>
  <g id="Layer_2-2" data-name="Layer 2">
    <rect class="cls-2" width="16" height="15.33" rx="3.35" ry="3.35"/>
  </g>
  <g id="Layer_1-2" data-name="Layer 1">
    <g>
      <path class="cls-1" d="M9.68,4.13c0-.48,0-.97,0-1.45,0-.19,.08-.27,.27-.27,.97,0,1.94,0,2.91,0,.19,0,.28,.09,.28,.28,0,.97,0,1.93,0,2.9,0,.2-.09,.29-.29,.29-.96,0-1.93,0-2.89,0-.19,0-.28-.09-.28-.29,0-.48,0-.97,0-1.45Z"/>
      <path class="cls-1" d="M9.68,11.05c0-.48,0-.96,0-1.44,0-.2,.1-.28,.28-.28,.97,0,1.93,0,2.9,0,.19,0,.28,.09,.28,.28,0,.96,0,1.92,0,2.87,0,.24-.07,.31-.32,.31-.95,0-1.89,0-2.84,0-.21,0-.3-.09-.3-.3,0-.48,0-.96,0-1.44Z"/>
      <path class="cls-1" d="M6.21,7.59c0-.48,0-.96,0-1.44,0-.19,.09-.28,.28-.28,.97,0,1.94,0,2.91,0,.19,0,.28,.1,.28,.29,0,.96,0,1.92,0,2.89,0,.19-.09,.29-.29,.29-.96,0-1.92,0-2.89,0-.21,0-.3-.1-.3-.31,0-.48,0-.95,0-1.43Z"/>
      <path class="cls-1" d="M4.48,2.4c.49,0,.97,0,1.46,0,.18,0,.27,.09,.27,.27,0,.97,0,1.95,0,2.92,0,.19-.1,.27-.28,.27-.97,0-1.94,0-2.91,0-.2,0-.28-.1-.28-.29,0-.96,0-1.92,0-2.87,0-.21,.09-.31,.31-.3,.48,0,.95,0,1.43,0Z"/>
      <path class="cls-1" d="M4.47,12.79c-.48,0-.96,0-1.44,0-.2,0-.29-.09-.29-.28,0-.97,0-1.93,0-2.9,0-.19,.09-.29,.29-.29,.97,0,1.93,0,2.9,0,.18,0,.28,.08,.28,.28,0,.97,0,1.93,0,2.9,0,.2-.09,.29-.29,.29-.48,0-.96,0-1.44,0Z"/>
    </g>
  </g>
</svg>