<svg xmlns="http://www.w3.org/2000/svg" xmlns:xlink="http://www.w3.org/1999/xlink" viewBox="0 0 240 240"><defs><style>.cls-1{fill:none;}.cls-2{isolation:isolate;}.cls-3{clip-path:url(#clip-path);}.cls-4{fill:#004b4b;}.cls-5{fill:#007f7f;}.cls-6{fill:#fefefe;}.cls-7{fill:#f6921a;}.cls-8{fill:#006b6b;}.cls-9{fill:#f66d1a;}.cls-10{fill:#f56d1a;}</style><clipPath id="clip-path" transform="translate(-0.48 -0.48)"><circle class="cls-1" cx="120.48" cy="120.48" r="120"/></clipPath></defs><g id="fib_circles_moon_dark" data-name="fib circles moon dark"><g id="_1000_382_copy_Layer_3_Layer_4_1618_copy_3_1618_copy_6_1618_copy_5_1618_copy" data-name="1000 + 382 copy + Layer 3 + Layer 4 + 1618 copy 3 + 1618 copy 6 + 1618 copy 5 + 1618 copy" class="cls-2"><g class="cls-3"><path class="cls-4" d="M240.46.78q0,119.27,0,238.51c0,.94-.13,1.19-1.14,1.19q-63.81,0-127.61,0c-.8-1-.58-2.31-.65-3.45-.33-5.46-.47-10.93-.28-16.4A194.15,194.15,0,0,1,155.5,102a182.64,182.64,0,0,1,12.57-13.8,196.24,196.24,0,0,1,44.46-33,31.62,31.62,0,0,1,4.88-2.24,1.19,1.19,0,0,1,.54-.16,1.51,1.51,0,0,0-.61.19c-4.25,1.64-8.66,2.8-13,4.27a328.34,328.34,0,0,0-30.8,12.32,308.72,308.72,0,0,0-45.85,26.09,305.24,305.24,0,0,0-28.12,21.77c-4.12,3.6-8.13,7.31-12.08,11.09a308.88,308.88,0,0,0-40.17,47.14,315,315,0,0,0-20.83,34.54c-4.79,9.22-9,18.68-12.93,28.31a4.33,4.33,0,0,1-1.11,1.95H.74a2.57,2.57,0,0,1-.11-1.29q0-13.72,0-27.44a6.53,6.53,0,0,1,.92-2.81,313.79,313.79,0,0,1,31.61-47.24c4.42-5.46,9-10.8,13.81-15.92,3.18-3.37,6.29-6.81,9.6-10a329,329,0,0,1,36.72-31.09,318.68,318.68,0,0,1,31.28-20,313,313,0,0,1,87.37-32.85,32.91,32.91,0,0,1,4.49-.68c-4,.64-8.24.5-12.47.75a1.6,1.6,0,0,1-1.26-.21,4,4,0,0,1-.57-1.93,45.43,45.43,0,0,0-33-37.28A45.2,45.2,0,0,0,127,22.52a44.66,44.66,0,0,0-14.7,28.26,44.16,44.16,0,0,0,1.42,17.78A3.42,3.42,0,0,1,114,70.2c-.24.76-.92.94-1.55,1.17A302.44,302.44,0,0,0,82.14,84.64a313.37,313.37,0,0,0-39.49,23.72,330.69,330.69,0,0,0-28.14,22.31c-4.1,3.62-8,7.45-12,11.2a5,5,0,0,1-1.19,1c-.48.23-.77.14-.72-.47V2.58c0-.36,0-.72,0-1.08C.57.91.77.59,1.42.66a7.85,7.85,0,0,0,.84,0H239A3,3,0,0,1,240.46.78Z" transform="translate(-0.48 -0.48)"/><path class="cls-5" d="M217.67,53a191.07,191.07,0,0,0-31.31,19.8A196.85,196.85,0,0,0,142.18,121a190.66,190.66,0,0,0-16.76,32.23,193.2,193.2,0,0,0-9.2,29.07,188.58,188.58,0,0,0-3.56,20.46c-.6,5.22-1,10.46-1.24,15.71-.21,4.31-.15,8.62-.13,12.92,0,3,.28,6.05.44,9.07H12.49a58.84,58.84,0,0,1,2.8-7.24q4.53-11,9.93-21.51a318.23,318.23,0,0,1,20.81-35q8.67-12.63,18.53-24.36c4.65-5.52,9.51-10.86,14.49-16.09,3.73-3.9,7.6-7.64,11.51-11.34,5.1-4.82,10.42-9.39,15.85-13.84a315,315,0,0,1,28-20.46c7.13-4.64,14.46-8.93,21.94-13a310.43,310.43,0,0,1,34-15.76q13-5.11,26.39-9a5.78,5.78,0,0,1,.7-.14C217.68,52.69,217.73,52.8,217.67,53Z" transform="translate(-0.48 -0.48)"/><path class="cls-6" d="M.78,211.19l0,29.26c-.07,0-.25.12-.24-.12s0-.64,0-1Q.5,120.5.48,1.62c0-.9.2-1.1,1.1-1.1l237.8,0c.35,0,.81-.28,1.08.22Q121.32.78,2.18.75C1,.75.71,1,.71,2.23Q.77,71.92.74,141.6c0,.44,0,.87,0,1.31a1.41,1.41,0,0,1,.46,1.18c0,.56,0,1.12,0,1.68q0,30.94,0,61.89A11.36,11.36,0,0,1,.78,211.19Z" transform="translate(-0.48 -0.48)"/><path class="cls-5" d="M.78,211.19c0-.27,0-.55,0-.83V143.75c0-.28,0-.56,0-.84,1.46-1.36,3-2.68,4.37-4.08,6.16-6.08,12.7-11.75,19.39-17.25A306.6,306.6,0,0,1,53.05,100.8C60,96.31,67.12,92.14,74.39,88.21a317.1,317.1,0,0,1,34-15.77,48.67,48.67,0,0,0,5.31-2.14c1.14-1.1,2.71-1.25,4.09-1.83a3.85,3.85,0,0,0,.79-.26c3-1.22,6.09-2.14,9.16-3.11a31.42,31.42,0,0,1,4.12-1.23c4-1.4,8.17-2.43,12.29-3.51,8.05-2.11,16.18-3.84,24.38-5.27A6.84,6.84,0,0,1,169.7,55a77.55,77.55,0,0,1,8.43-1.39c2.55-.46,5.11-.76,7.68-1,1.51-.06,3-.42,4.48-.54,1.7-.14,3.41-.26,5.11-.45s3.17-.2,4.75-.42a3.07,3.07,0,0,1,2.64.37l14.79-.72,0,.26-5.8,1.21q-13.94,3-27.54,7.2a309.44,309.44,0,0,0-61.71,26.81c-7.38,4.22-14.61,8.7-21.63,13.5A303.52,303.52,0,0,0,76.7,118.11c-5.86,4.93-11.53,10.07-17.09,15.34-4.87,4.62-9.5,9.47-14,14.41a315,315,0,0,0-44.6,63A1.86,1.86,0,0,1,.78,211.19Z" transform="translate(-0.48 -0.48)"/><path class="cls-7" d="M118.67,68.56a37.28,37.28,0,0,1-5,1.73,49.61,49.61,0,0,1-2.19-15,45.79,45.79,0,0,1,90.23-10.16,34.32,34.32,0,0,1,1.07,6.37l-7.41.5c-.95-.29-1.85-.73-2.82-1a6,6,0,0,0-5.11,1,8.74,8.74,0,0,1-1.64,1l-7.68,1a3.74,3.74,0,0,1-1-1.19,3.55,3.55,0,0,0-3.93-1.85,3.84,3.84,0,0,0-3,3.22c-.09.43-.09.88-.48,1.18a337,337,0,0,0-37.88,8.91,2.86,2.86,0,0,1-1.2-1.28,46.77,46.77,0,0,1-5.32-17.77,51.43,51.43,0,0,1,.47-12.15c-.38-.14-.55.13-.74.29a27.84,27.84,0,0,0-6.84,33.54C118.49,67.41,118.9,67.91,118.67,68.56Z" transform="translate(-0.48 -0.48)"/><path class="cls-8" d="M217.67,53l-.24-.25a1.84,1.84,0,0,1,1.22-.38C218.41,52.79,218,52.84,217.67,53Z" transform="translate(-0.48 -0.48)"/><path class="cls-9" d="M118.67,68.56a26.2,26.2,0,0,1-3.57-10.2,27.22,27.22,0,0,1,1-12.16,28.2,28.2,0,0,1,10.09-14.34s.15,0,.29,0c-.13,1.82-.46,3.61-.66,5.41a41.42,41.42,0,0,0,.13,9.18,45.24,45.24,0,0,0,5.17,16.32c.27.49.52,1,.77,1.48Z" transform="translate(-0.48 -0.48)"/><path class="cls-9" d="M169.75,55.34a4.28,4.28,0,0,1,5.74-4.66,4.42,4.42,0,0,1,2.64,3.3Z" transform="translate(-0.48 -0.48)"/><path class="cls-10" d="M185.81,53a6.55,6.55,0,0,1,9.57-1Z" transform="translate(-0.48 -0.48)"/><path class="cls-9" d="M176.17,40.33A10.79,10.79,0,1,1,187,29.55,10.8,10.8,0,0,1,176.17,40.33Z" transform="translate(-0.48 -0.48)"/></g></g></g></svg>