<svg id="Layer_1" data-name="Layer 1" xmlns="http://www.w3.org/2000/svg" xmlns:xlink="http://www.w3.org/1999/xlink" viewBox="0 0 1282.97 237.48"><defs><style>.cls-1{fill:none;}.cls-2{fill:teal;}.cls-3{isolation:isolate;}.cls-4{clip-path:url(#clip-path);}.cls-5{fill:#004b4b;}.cls-6{fill:#007f7f;}.cls-7{fill:#fefefe;}.cls-8{fill:#f6921a;}.cls-9{fill:#006b6b;}.cls-10{fill:#f66d1a;}.cls-11{fill:#f56d1a;}</style><clipPath id="clip-path" transform="translate(-1.34 -1.66)"><circle class="cls-1" cx="120" cy="120.36" r="117.88"/></clipPath></defs><g id="TEALSTREET"><path class="cls-2" d="M320.46,177.11V77.85h-31.9V60.24h87.85V77.85H344.34v99.26Z" transform="translate(-1.34 -1.66)"/><path class="cls-2" d="M403.63,177.11V60.24H481V77.85H427.51v33.06h47.35v17.53H427.51v31.05H481V177.1H403.63Z" transform="translate(-1.34 -1.66)"/><path class="cls-2" d="M596.87,177.11h-24.3l-5.85-26.55h-33.9L527,177.11h-24.3L530.81,60.24h37.91Zm-48.1-99.26L536.33,133h26.89l-12.44-55.1Z" transform="translate(-1.34 -1.66)"/><path class="cls-2" d="M614.66,177.11V60.24h24V159.5h41.92v17.61Z" transform="translate(-1.34 -1.66)"/><path class="cls-2" d="M742.18,178.94a59,59,0,0,1-18.37-2.75,42.22,42.22,0,0,1-14.53-8,31.13,31.13,0,0,1-8.94-12.56L712.78,150a26.75,26.75,0,0,0,6.6,9.77,30.46,30.46,0,0,0,10.31,6.34,37,37,0,0,0,13.15,2.25,33.55,33.55,0,0,0,14-2.71A21.56,21.56,0,0,0,766.1,158a20.34,20.34,0,0,0,3.3-11.6,16,16,0,0,0-2.67-9.14,24.82,24.82,0,0,0-7.18-6.89,49.87,49.87,0,0,0-10-4.93,98.26,98.26,0,0,0-11.07-3.34,82.86,82.86,0,0,1-14-4.59,42.19,42.19,0,0,1-10.9-6.76,27.2,27.2,0,0,1-7.06-9.52,31.05,31.05,0,0,1-2.46-12.77,24.65,24.65,0,0,1,2.17-10.52,25.91,25.91,0,0,1,6-8.18A34.15,34.15,0,0,1,721,63.91a47.2,47.2,0,0,1,10.69-3.51,57.56,57.56,0,0,1,11.57-1.17,52.38,52.38,0,0,1,16.87,2.63,38.77,38.77,0,0,1,13.15,7.3,25.68,25.68,0,0,1,7.56,10.69l-12.28,5.59A22.75,22.75,0,0,0,763,76.88a24,24,0,0,0-8.77-5.26,34.26,34.26,0,0,0-11.4-1.79A35.73,35.73,0,0,0,733.49,71a28.79,28.79,0,0,0-8.1,3.51,17.81,17.81,0,0,0-5.68,5.68,14.71,14.71,0,0,0-2.09,7.89A17.62,17.62,0,0,0,721,99.06a24.8,24.8,0,0,0,9.19,7.26A67.22,67.22,0,0,0,743.43,111q5.69,1.42,11.36,3.34a72.76,72.76,0,0,1,10.73,4.59,39.66,39.66,0,0,1,9,6.43,28,28,0,0,1,6.18,8.68,27.05,27.05,0,0,1,2.25,11.35,32.8,32.8,0,0,1-2.13,12.15,29,29,0,0,1-5.93,9.39,33.4,33.4,0,0,1-8.94,6.68,45.31,45.31,0,0,1-11.19,4A58.11,58.11,0,0,1,742.18,178.94Z" transform="translate(-1.34 -1.66)"/><path class="cls-2" d="M835.37,177.11V70.5H800.13V60.24h83.34V70.5H848.23V177.1H835.37Z" transform="translate(-1.34 -1.66)"/><path class="cls-2" d="M908.36,177.11V60.24h40.08a45.51,45.51,0,0,1,8.77.88A34.55,34.55,0,0,1,965.89,64a24.94,24.94,0,0,1,12.73,14.4,37.06,37.06,0,0,1,2,12.77,36.33,36.33,0,0,1-2.05,12.86,29.07,29.07,0,0,1-5.39,9.18,27.52,27.52,0,0,1-7.52,6,34.17,34.17,0,0,1-8.56,3.26,36.91,36.91,0,0,1-8.23,1H921.19v53.59Zm12.86-63.61h25.3a24.49,24.49,0,0,0,10.23-2.17,17.91,17.91,0,0,0,7.85-7q3-4.84,3-12.77,0-8.34-3.17-12.9a16.63,16.63,0,0,0-8.18-6.34,30.39,30.39,0,0,0-10.36-1.79H921.22Zm47.68,63.61-23.22-57.43,12.78-1.42,24.22,58.85Z" transform="translate(-1.34 -1.66)"/><path class="cls-2" d="M1008.73,177.11V60.24h70.9V70.5h-58v44.08h51.19v10.18h-51.19v42.07h58V177.1h-70.9Z" transform="translate(-1.34 -1.66)"/><path class="cls-2" d="M1108.94,177.11V60.24h70.9V70.5h-58v44.08H1173v10.18h-51.19v42.07h58V177.1h-70.91Z" transform="translate(-1.34 -1.66)"/><path class="cls-2" d="M1236.21,177.11V70.5H1201V60.24h83.34V70.5h-35.24V177.1h-12.86Z" transform="translate(-1.34 -1.66)"/></g><g id="fib_circles_moon_dark" data-name="fib circles moon dark"><g id="_1000_382_copy_Layer_3_Layer_4_1618_copy_3_1618_copy_6_1618_copy_5_1618_copy" data-name="1000 + 382 copy + Layer 3 + Layer 4 + 1618 copy 3 + 1618 copy 6 + 1618 copy 5 + 1618 copy" class="cls-3"><g class="cls-4"><path class="cls-5" d="M1.36,238.84V209.91A16.13,16.13,0,0,1,3.6,205a312.55,312.55,0,0,1,33.5-48.53c4.63-5.5,9.49-10.8,14.44-16,3.59-3.79,7.34-7.42,11.14-11a304.83,304.83,0,0,1,26.25-22,313.84,313.84,0,0,1,39.26-25.07c5.82-3.13,11.71-6.12,17.74-8.81a321.77,321.77,0,0,1,47.94-17.31c5.62-1.5,11.26-2.9,16.95-4.1a35.65,35.65,0,0,1,4.43-.67c-3.95.64-8.19.5-12.41.76a1.62,1.62,0,0,1-1.25-.21,3.79,3.79,0,0,1-.56-1.91,44.87,44.87,0,0,0-52.6-37.72A43.47,43.47,0,0,0,127.8,22a44.79,44.79,0,0,0-14.46,47.14,2.55,2.55,0,0,1,.15,1.28c-.23.76-.91.93-1.54,1.16A301,301,0,0,0,81.76,84.77a308.15,308.15,0,0,0-38.82,23.31A320,320,0,0,0,17,128.44c-3.42,3-6.83,6-10,9.23-1.42,1.43-3,2.67-4.41,4.14-.31.33-.66.73-1.22.51q0-69.7,0-139.42c0-.93.1-1.24,1.18-1.24q117.66,0,235.33,0c.93,0,1.17.15,1.17,1.14q0,118,0,236a3.26,3.26,0,0,1-1.52.11H111.68c-.89,0-.82-.72-.86-1.28q-.51-6.56-.5-13.13a192,192,0,0,1,8.58-56.83,186,186,0,0,1,26.76-54.06,181.31,181.31,0,0,1,15-18.38c2.19-2.33,4.3-4.75,6.58-7a196.43,196.43,0,0,1,44.12-32.78,31,31,0,0,1,4.84-2.21,1.14,1.14,0,0,1,.53-.16,1.46,1.46,0,0,0-.6.19c-4.17,1.61-8.5,2.75-12.73,4.19a321.71,321.71,0,0,0-30.62,12.23c-8.13,3.74-16,7.93-23.83,12.27a296.14,296.14,0,0,0-45.73,31.74c-5.44,4.53-10.65,9.31-15.77,14.2a307.92,307.92,0,0,0-38.53,44.79,304.34,304.34,0,0,0-19.6,31.63,317.34,317.34,0,0,0-15.42,33.08c-.25.62-.33,1.45-1.28,1.5H2.51A2.27,2.27,0,0,1,1.36,238.84Z" transform="translate(-1.34 -1.66)"/><path class="cls-6" d="M1.36,142.31c1.5-1.39,3.05-2.75,4.51-4.18,6.06-5.95,12.46-11.5,19-16.89a306.25,306.25,0,0,1,27.62-20.17c7.09-4.6,14.38-8.87,21.81-12.9a315.09,315.09,0,0,1,33.62-15.59,49.81,49.81,0,0,0,5.26-2.12c1.14-1.08,2.69-1.24,4-1.8a3.76,3.76,0,0,0,.78-.26c3-1.2,6-2.12,9.08-3.08a30.38,30.38,0,0,1,4.08-1.22c4-1.38,8.07-2.44,12.16-3.47,8.07-2,16.19-3.81,24.39-5.22a6.62,6.62,0,0,1,1.17-.11,79,79,0,0,1,8.35-1.38c2.52-.45,5.06-.75,7.61-1,1.49-.06,2.95-.42,4.43-.54,1.69-.14,3.38-.26,5.06-.45s3.14-.2,4.71-.41a3,3,0,0,1,2.61.36l14.64-.7,0,.25c-1.91.4-3.83.79-5.74,1.2q-13.68,2.92-27.05,7A328.66,328.66,0,0,0,151.67,71.5a295,295,0,0,0-31.34,15.73,312.14,312.14,0,0,0-34.64,23.2c-5.57,4.28-11,8.79-16.22,13.46s-10.19,9.23-15,14.14c-5.57,5.7-11,11.57-16.13,17.66A312.69,312.69,0,0,0,14.92,187.1c-4.69,7.18-9.1,14.53-13.11,22.11-.13.24-.3.46-.45.69Z" transform="translate(-1.34 -1.66)"/><path class="cls-7" d="M111.29,238.8c.51,0,1,0,1.54,0H239c-.05.07.12.25-.12.24s-.63,0-1,0H2.43c-.35,0-.8.27-1.07-.22l11.61,0a1.67,1.67,0,0,1,1.19-.45h94.63C109.64,238.34,110.56,238.11,111.29,238.8Z" transform="translate(-1.34 -1.66)"/><path class="cls-6" d="M111.29,238.8c-.35,0-.71,0-1.06,0H14c-.35,0-.71,0-1.06,0a87.25,87.25,0,0,1,3.26-8.25q4-9.56,8.69-18.81a311.07,311.07,0,0,1,25.9-42.42c5.49-7.53,11.26-14.83,17.39-21.85,3.51-4,7.17-7.88,10.8-11.78s7.51-7.58,11.39-11.22q10.28-9.64,21.43-18.27,10.64-8.24,21.9-15.59c4.14-2.7,8.31-5.35,12.63-7.73,6-3.31,12-6.7,18.18-9.72a321.81,321.81,0,0,1,34.36-14.54q8.22-2.9,16.58-5.35c.23-.07.46-.09.7-.14s.3,0,.23.25a190.84,190.84,0,0,0-31,19.59,195.42,195.42,0,0,0-15,13,213.1,213.1,0,0,0-22.64,25.75A171.3,171.3,0,0,0,134,133.23a186.05,186.05,0,0,0-14.57,34.42,183,183,0,0,0-6.26,27.06q-1.33,8.76-1.93,17.61c-.4,6-.47,12-.38,18C110.88,233.13,111.13,236,111.29,238.8Z" transform="translate(-1.34 -1.66)"/><path class="cls-8" d="M184.87,53.35l-7.61,1a3.78,3.78,0,0,1-1-1.18,3.52,3.52,0,0,0-3.9-1.83,3.81,3.81,0,0,0-3,3.18c-.08.43-.09.87-.47,1.17a343.9,343.9,0,0,0-37.75,8.82A2.76,2.76,0,0,1,130,63.21a46.37,46.37,0,0,1-5.27-17.58,51.42,51.42,0,0,1,.46-12c-.37-.14-.54.13-.73.29a27.54,27.54,0,0,0-6.78,33.19c.25.52.65,1,.43,1.67a36.06,36.06,0,0,1-4.94,1.71A48.54,48.54,0,0,1,111,56,45.48,45.48,0,0,1,200.62,45.6a34.45,34.45,0,0,1,1.06,6.29l-7.33.5c-.94-.28-1.84-.72-2.79-1a6,6,0,0,0-5.06,1A8.11,8.11,0,0,1,184.87,53.35Z" transform="translate(-1.34 -1.66)"/><path class="cls-9" d="M216.42,53.37l-.23-.25a1.75,1.75,0,0,1,1.21-.37C217.16,53.14,216.75,53.2,216.42,53.37Z" transform="translate(-1.34 -1.66)"/><path class="cls-10" d="M118.14,68.75a26,26,0,0,1-3.53-10.09,27,27,0,0,1,1-12,28,28,0,0,1,10-14.19s.15,0,.29,0c-.13,1.8-.46,3.57-.65,5.36a40.52,40.52,0,0,0,.13,9.08A44.57,44.57,0,0,0,130.45,63c.26.48.51,1,.76,1.46Z" transform="translate(-1.34 -1.66)"/><path class="cls-10" d="M169,55.67a4.24,4.24,0,0,1,5.68-4.61,4.34,4.34,0,0,1,2.61,3.27Z" transform="translate(-1.34 -1.66)"/><path class="cls-11" d="M184.87,53.35a6.48,6.48,0,0,1,9.48-1Z" transform="translate(-1.34 -1.66)"/><path class="cls-10" d="M175.31,40.81a10.68,10.68,0,1,1,10.74-10.65A10.69,10.69,0,0,1,175.31,40.81Z" transform="translate(-1.34 -1.66)"/></g></g></g></svg>