<svg id="Layer_1" data-name="Layer 1" xmlns="http://www.w3.org/2000/svg" viewBox="0 0 247.87 198.25"><defs><style>.cls-1{fill:#00bf65;}.cls-2{fill:#125bfe;}</style></defs><path class="cls-1" d="M258.57,316.18c2.88.07,3.83.06,3.83.06,5.37-22.13,12.86-52.25,18.48-74.31h-100c-.91,4.39-2.63,12.3-3.71,16.65q-11.4,46-22.78,92-10.54,42.35-21.25,84.64l-1.2,4.73c13.15-.26,31.29-.26,44.44.05,4.43.11,5.54.12,5.54.12,9.26-38,20.18-81.49,29.5-119.42.81-3.27,1.12-4.8,1.12-4.8Z" transform="translate(-131.94 -241.85)"/><path class="cls-2" d="M249.43,365.62c13.5.13,31.12,0,44.61.25l5,.09c9.21-37.62,20-80.28,29.12-117.91l1.5-6.2s32.4.23,45.4.08c3.61-.05,4.74-.08,4.74-.08-6.76,26.4-14.47,57.43-21.05,83.88-8.88,35.64-17.66,71.31-26.65,106.92L330.16,440c-14,.08-35.4-.1-49.4-.1-15.16,0-34.67-.08-49.83.06,0,0,.18-.67,1.07-4.14Z" transform="translate(-131.94 -241.85)"/></svg>