<?xml version="1.0" standalone="no"?>
<!DOCTYPE svg PUBLIC "-//W3C//DTD SVG 20010904//EN"
 "http://www.w3.org/TR/2001/REC-SVG-20010904/DTD/svg10.dtd">
<svg version="1.0" xmlns="http://www.w3.org/2000/svg"
 width="1000.000000pt" height="1000.000000pt" viewBox="0 0 1000.000000 1000.000000"
 preserveAspectRatio="xMidYMid meet">
<metadata>
Created by potrace 1.14, written by Peter Selinger 2001-2017
</metadata>
<g transform="translate(0.000000,1000.000000) scale(0.100000,-0.100000)"
fill="#000000" stroke="none">
<path d="M4749 9976 c-2 -2 -54 -7 -115 -10 -62 -4 -120 -8 -130 -10 -11 -2
-50 -7 -89 -10 -38 -4 -77 -9 -85 -11 -8 -2 -37 -6 -65 -10 -27 -3 -57 -8 -65
-10 -8 -2 -31 -6 -50 -9 -57 -9 -124 -22 -215 -40 -185 -38 -548 -148 -735
-223 -182 -72 -555 -245 -570 -264 -3 -4 -32 -21 -65 -38 -33 -17 -76 -41 -95
-53 -19 -12 -44 -26 -55 -32 -11 -6 -72 -45 -135 -87 -136 -89 -224 -152 -309
-219 -10 -8 -33 -26 -52 -40 -193 -146 -489 -428 -679 -649 -30 -35 -60 -69
-65 -75 -36 -39 -195 -247 -195 -255 0 -5 -4 -11 -8 -13 -5 -1 -23 -25 -42
-53 -18 -27 -36 -52 -40 -55 -11 -9 -146 -224 -192 -305 -25 -44 -56 -98 -68
-120 -33 -58 -132 -257 -175 -350 -57 -124 -189 -465 -180 -465 2 0 -3 -17
-12 -37 -34 -82 -140 -498 -158 -618 -3 -22 -7 -47 -10 -55 -7 -27 -27 -170
-40 -285 -4 -33 -9 -71 -11 -85 -26 -157 -26 -766 0 -990 3 -19 7 -59 10 -89
8 -72 24 -184 36 -251 5 -30 12 -68 15 -85 2 -16 7 -41 10 -55 3 -14 7 -36 10
-50 2 -14 21 -90 41 -170 20 -80 37 -149 38 -155 28 -118 171 -517 219 -610
11 -22 20 -42 20 -45 0 -27 200 -421 249 -492 10 -14 18 -29 18 -33 0 -4 13
-27 30 -52 16 -24 30 -46 30 -49 0 -9 192 -289 201 -292 5 -2 9 -8 9 -14 0
-10 195 -258 266 -337 155 -175 360 -379 500 -498 27 -23 60 -51 74 -63 115
-101 443 -335 590 -420 41 -24 82 -49 90 -55 32 -25 309 -168 445 -230 110
-50 123 -55 247 -104 104 -41 354 -126 423 -144 11 -3 61 -17 110 -30 79 -22
199 -51 260 -63 11 -2 31 -6 45 -9 14 -2 39 -7 55 -10 17 -3 41 -7 55 -10 39
-8 208 -33 275 -40 33 -4 74 -8 90 -10 215 -27 835 -27 995 -1 14 3 55 7 92
11 37 3 77 8 90 10 13 2 80 13 150 24 120 20 393 77 408 86 3 2 18 6 31 8 94
18 496 152 637 213 17 8 49 21 70 30 137 59 459 221 542 274 8 5 40 24 70 42
120 70 405 268 455 316 8 6 16 12 19 12 3 0 16 9 28 19 13 11 57 47 98 81 114
94 233 204 344 317 112 112 206 212 206 218 0 2 10 15 23 28 146 152 370 462
539 746 72 120 233 435 280 546 96 228 173 451 229 659 22 83 44 165 49 181 5
17 11 47 14 69 4 21 8 42 11 46 3 4 7 29 10 56 4 26 8 50 10 54 2 3 6 24 9 46
4 22 8 51 11 64 5 28 23 156 30 225 3 28 8 60 10 72 26 156 26 877 -1 1016 -2
10 -6 46 -9 80 -3 34 -8 74 -11 90 -2 15 -6 39 -8 55 -3 15 -8 47 -11 72 -32
225 -134 626 -216 848 -10 28 -29 78 -40 110 -12 31 -27 71 -34 87 -7 17 -32
75 -55 130 -51 120 -164 349 -222 448 -23 39 -46 81 -52 92 -49 90 -231 369
-261 399 -8 8 -15 17 -15 21 0 5 -127 171 -155 201 -5 7 -26 31 -45 55 -109
135 -357 392 -501 519 -153 134 -438 360 -455 360 -3 0 -13 8 -24 18 -23 21
-250 166 -368 234 -215 125 -525 268 -769 357 -178 65 -450 146 -552 166 -13
2 -30 6 -39 9 -9 3 -28 7 -42 10 -14 3 -70 14 -125 25 -55 11 -118 22 -140 25
-23 4 -51 8 -64 11 -13 2 -49 7 -80 10 -31 3 -67 8 -81 10 -14 2 -56 7 -95 11
-38 3 -81 8 -95 11 -32 5 -646 13 -651 9z"/>
</g>
</svg>
