<svg id="Layer_1" data-name="Layer 1" xmlns="http://www.w3.org/2000/svg" viewBox="0 0 274.45 274.45"><defs><style>.cls-1{fill:#095bdf;}.cls-2{fill:#4684e7;}.cls-3{fill:#4683e7;}.cls-4{fill:#9fbff2;}.cls-5{fill:#4885e7;}.cls-6{fill:#83acee;}.cls-7{fill:#4482e7;}.cls-8{fill:#4281e7;}.cls-9{fill:#86aeee;}.cls-10{fill:#c0d5f6;}.cls-11{fill:#c5d8f7;}.cls-12{fill:#c3d7f6;}.cls-13{fill:#c6d9f7;}.cls-14{fill:#fefefe;}.cls-15{fill:#3ce9f2;}.cls-16{fill:#37d101;}.cls-17{fill:#63db39;}</style></defs><path class="cls-1" d="M302.75,259h7a6.59,6.59,0,0,0,2,.13,5,5,0,0,0,1.77-.13h.5a60.67,60.67,0,0,0,6.32.34,78.07,78.07,0,0,1,14.29,2,136.78,136.78,0,0,1,36.48,13.23,134.75,134.75,0,0,1,22.54,15.13,137.2,137.2,0,0,1,12.27,11.34,140.92,140.92,0,0,1,12.84,15.58,135.28,135.28,0,0,1,11.28,19,138.3,138.3,0,0,1,11.81,36,105.62,105.62,0,0,1,1.52,17.48v14.23a101.23,101.23,0,0,1-2.91,24.2,141.49,141.49,0,0,1-9.82,28,139.15,139.15,0,0,1-18.69,29.12,122,122,0,0,1-8.77,9.56,142.5,142.5,0,0,1-27.68,21.18,137.36,137.36,0,0,1-38.88,15.26,89.18,89.18,0,0,1-19.86,2.62c-1.28,0-2.57.09-3.86.1H299.66c-11,.14-21.58-1.82-32.05-4.87a134.79,134.79,0,0,1-23.21-9.08,136.7,136.7,0,0,1-27.18-18,128.25,128.25,0,0,1-10-9.26A144.34,144.34,0,0,1,193.17,475a138.4,138.4,0,0,1-10.77-18.26A140,140,0,0,1,171,422.62a100.34,100.34,0,0,1-1.83-18.69v-2.68a10.47,10.47,0,0,0-.12-2.5v-5a10.72,10.72,0,0,0,.12-2.53v-2.51c-.13-10,1.64-19.68,4.27-29.25a137,137,0,0,1,10.52-26.79,139.14,139.14,0,0,1,15.33-23.31,134.15,134.15,0,0,1,12.57-13.53,137.51,137.51,0,0,1,53.77-31.31,128.89,128.89,0,0,1,22.88-4.94,82.6,82.6,0,0,1,9.58-.43h2.65A6.9,6.9,0,0,0,302.75,259Z" transform="translate(-169.03 -259.02)"/><path class="cls-2" d="M443.25,400.27c0-2.68,0-5.37,0-8,.09-.12.16-.11.22,0v8C443.41,400.42,443.34,400.42,443.25,400.27Z" transform="translate(-169.03 -259.02)"/><path class="cls-3" d="M303.22,533.27h6.06c.08.06.1.11.07.15a.16.16,0,0,1-.1.05h-6c-.09,0-.13-.07-.11-.12S303.19,533.27,303.22,533.27Z" transform="translate(-169.03 -259.02)"/><path class="cls-4" d="M169,388.5l.22,0v2.73c0,.2-.11.21-.21,0Z" transform="translate(-169.03 -259.02)"/><path class="cls-3" d="M169,391.25a.52.52,0,0,1,.21,0c0,.85.26,1.73-.21,2.54Z" transform="translate(-169.03 -259.02)"/><path class="cls-5" d="M169,398.75c.48.8.16,1.67.23,2.51-.09.16-.17.16-.23,0Z" transform="translate(-169.03 -259.02)"/><path class="cls-6" d="M303.22,533.27l0,.2H301c-.17-.06-.17-.13,0-.22Z" transform="translate(-169.03 -259.02)"/><path class="cls-6" d="M309.25,533.47l0-.2,2.24,0c.16.09.15.16,0,.22Z" transform="translate(-169.03 -259.02)"/><path class="cls-7" d="M311.78,259.24c-.68,0-1.39.23-2-.22h2c.1,0,.14.09.11.14S311.81,259.24,311.78,259.24Z" transform="translate(-169.03 -259.02)"/><path class="cls-8" d="M302.75,259c-.63.44-1.34.2-2,.22-.09-.06-.12-.11-.08-.15a.13.13,0,0,1,.1-.07Z" transform="translate(-169.03 -259.02)"/><path class="cls-6" d="M443.48,392.25l-.22,0c0-.58,0-1.16,0-1.74.08-.13.15-.12.21,0Z" transform="translate(-169.03 -259.02)"/><path class="cls-9" d="M311.78,259.24a1.46,1.46,0,0,1,0-.22h1.75C313,259.52,312.35,259.18,311.78,259.24Z" transform="translate(-169.03 -259.02)"/><path class="cls-6" d="M443.25,400.27l.23,0V402c-.06.14-.13.14-.21,0Z" transform="translate(-169.03 -259.02)"/><path class="cls-10" d="M443.48,390.5l-.1,0h-.11V389a.81.81,0,0,1,.22,0Z" transform="translate(-169.03 -259.02)"/><path class="cls-9" d="M169,401.25a.89.89,0,0,1,.23,0c0,.5,0,1,0,1.5-.08.16-.15.15-.21,0Z" transform="translate(-169.03 -259.02)"/><path class="cls-11" d="M443.27,402a.75.75,0,0,0,.21,0v1.5h-.22C443.26,403,443.26,402.51,443.27,402Z" transform="translate(-169.03 -259.02)"/><path class="cls-9" d="M300.75,259a1.5,1.5,0,0,1,0,.22h-1.49c-.16-.09-.16-.16,0-.22Z" transform="translate(-169.03 -259.02)"/><path class="cls-12" d="M301,533.25a1.7,1.7,0,0,1,0,.22h-1.5a.74.74,0,0,0,0-.21Z" transform="translate(-169.03 -259.02)"/><path class="cls-12" d="M311.5,533.47a.86.86,0,0,1,0-.22H313a1.48,1.48,0,0,0,0,.21Z" transform="translate(-169.03 -259.02)"/><path class="cls-13" d="M169,402.75h.21c0,.42,0,.83,0,1.25H169Z" transform="translate(-169.03 -259.02)"/><path class="cls-13" d="M299.25,259a.79.79,0,0,1,0,.22H298a.54.54,0,0,0,0-.22Z" transform="translate(-169.03 -259.02)"/><path class="cls-14" d="M256.46,436c0-.45-.07-.91-.07-1.36q0-38.37,0-76.74c0-1.6,0-1.6,1.57-1.54a39.85,39.85,0,0,1,38,34.36,48.11,48.11,0,0,1,.25,9,4.54,4.54,0,0,0-.08,1.33c0,5.54-1.91,10.5-4.57,15.23a38.37,38.37,0,0,1-6.74,8.78,40.34,40.34,0,0,1-23.29,11.26,29.14,29.14,0,0,1-3.73.2A1.43,1.43,0,0,1,256.46,436Z" transform="translate(-169.03 -259.02)"/><path class="cls-15" d="M316.26,396.25c0-.46,0-.92,0-1.38v-76.6c0-1.8,0-1.8,1.85-1.74,18.42.59,34.6,15,37.46,33.29a48.3,48.3,0,0,1,.45,10.94c-.18,1.06-.18,2.14-.28,3.21a31.2,31.2,0,0,1-4.84,13.22,40.57,40.57,0,0,1-16.16,15.18,37.87,37.87,0,0,1-14,4.19,26.92,26.92,0,0,1-3.1.22A1.6,1.6,0,0,1,316.26,396.25Z" transform="translate(-169.03 -259.02)"/><path class="cls-16" d="M256.46,436A39.74,39.74,0,0,0,296,401c0-.15.11-.16.2,0,0,.37.05.74.05,1.12q0,36.22,0,72.46c0,1.19-.36,1.45-1.47,1.39a39.49,39.49,0,0,1-26.16-11.13,38.87,38.87,0,0,1-12.22-27.06C256.45,437.18,256.46,436.6,256.46,436Z" transform="translate(-169.03 -259.02)"/><path class="cls-14" d="M316.26,396.25a39.93,39.93,0,0,0,39.19-32.59,14.37,14.37,0,0,1,.53-2.9c0,.5,0,1,0,1.5q0,36.17,0,72.34c0,1.26-.37,1.52-1.53,1.45-15.23-.94-26.55-8.12-33.86-21.47A35.44,35.44,0,0,1,316.26,396.25Z" transform="translate(-169.03 -259.02)"/><path class="cls-17" d="M296.24,401l-.2,0a2.37,2.37,0,0,1,.17-1.29Z" transform="translate(-169.03 -259.02)"/></svg>