<?xml version="1.0" encoding="UTF-8"?>
<svg id="Layer_2" data-name="Layer 2" xmlns="http://www.w3.org/2000/svg" viewBox="0 0 14.63 16">
  <defs>
    <style>
      .cls-1 {
        fill: #20a1b3;
      }
    </style>
  </defs>
  <g id="Layer_1-2" data-name="Layer 1">
    <g>
      <path class="cls-1" d="M11.01,11.42c-.63,0-1.2,0-1.77,0-.11,0-.22,.02-.31-.08-.65-.72-1.3-1.43-2-2.2h4.11c-1.39-1.55-2.72-3.02-4.04-4.5,.02-.08,.08-.07,.13-.07,.77,0,1.54,0,2.31,0,.3,0,.54,.12,.74,.34,.68,.75,1.37,1.51,2.05,2.26,.71,.79,1.41,1.57,2.11,2.36,.39,.44,.41,1.02,.01,1.47-.99,1.11-1.98,2.21-2.98,3.32-.39,.43-.78,.85-1.16,1.29-.25,.29-.56,.39-.93,.39-.5,0-1,0-1.5,0-.18,0-.37,.03-.46-.18-.09-.21,.07-.33,.19-.46,1.13-1.26,2.27-2.52,3.4-3.78,.03-.03,.05-.06,.11-.15Z"/>
      <path class="cls-1" d="M7.69,6.85H3.6c.71,.79,1.37,1.54,2.04,2.29,.66,.74,1.33,1.47,2.06,2.28-.42,0-.74,0-1.07,0-.46,0-.92,0-1.38,0-.34,0-.62-.13-.84-.38C3.04,9.52,1.68,8,.31,6.48c-.4-.45-.42-1.04-.02-1.49,.97-1.09,1.94-2.17,2.92-3.25,.41-.46,.83-.92,1.24-1.38C4.66,.12,4.92,0,5.24,0c.57,0,1.14,0,1.71,0,.15,0,.29,0,.36,.16,.08,.16,0,.29-.1,.4-.81,.9-1.62,1.79-2.42,2.69-.38,.42-.75,.84-1.18,1.32,.58,0,1.08,.02,1.58,0,.3-.01,.52,.07,.73,.3,.57,.65,1.15,1.28,1.79,1.99Z"/>
    </g>
  </g>
</svg>