<svg id="Layer_1" data-name="Layer 1" xmlns="http://www.w3.org/2000/svg" viewBox="0 0 439.28 439.06"><defs><style>.cls-1{fill:#202b5b;}.cls-2{fill:#fbfbfb;}.cls-3{fill:#eaa63a;}.cls-4{fill:#212c5b;}</style></defs><path class="cls-1" d="M308.2,93.55C429.69,93.64,528,192,527.83,313.34s-98.57,219.4-219.9,219.27c-121.17-.13-219.15-98.18-219.38-219.54C88.32,192.09,187,93.46,308.2,93.55ZM310,329.31c1.23-.88,2.31-1.64,3.37-2.43A51.69,51.69,0,0,0,329,309.25c6-11.47,6.61-23.59,4-36-4.18-19.82-15.44-33.76-34.79-40.6-8.42-3-17.26-3.46-26.1-3.65-26.32-.55-52.64-.35-79-.26-5.38,0-6,.61-6,6v.5q.09,76.46.16,152.92,0,20.75-.12,41.48c0,4.69.38,5.29,5.18,5.3,19.82.07,39.65.19,59.47.16,12.41,0,24.82,0,37.15-1.71,15.57-2.11,28.46-8.73,37.64-21.89,10.32-14.78,12.23-31,9.19-48.36-2.62-14.93-10.82-25.42-23.75-32.67C311.42,330.19,310.8,329.78,310,329.31Zm70.07-58.24h0v94.69c0,1.41,0,2.83.15,4.24.31,2.91,1.46,4,4.38,4q16.11,0,32.23,0c3.49,0,4.59-1.23,4.53-4.76-.09-4.65-.15-9.31-.15-14,0-14.64.14-29.28-.16-43.92-.3-14.2,0-28.42.23-42.63.47-30.8.15-61.62.14-92.44,0-1.08,0-2.16-.07-3.24-.27-4.17-1.4-5.28-5.52-5.44-.66,0-1.33,0-2,0-8.41.31-16.8.57-25.22,0-7.4-.45-8.58.77-8.58,8.24Z" transform="translate(-88.55 -93.55)"/><path class="cls-2" d="M310,329.31c.77.47,1.39.88,2,1.24,12.93,7.25,21.13,17.74,23.75,32.67,3,17.39,1.13,33.58-9.19,48.36-9.18,13.16-22.07,19.78-37.64,21.89-12.33,1.68-24.74,1.7-37.15,1.71-19.82,0-39.65-.09-59.47-.16-4.8,0-5.22-.61-5.18-5.3q.17-20.75.12-41.48-.06-76.46-.16-152.92v-.5c0-5.44.59-6,6-6,26.32-.09,52.64-.29,79,.26,8.84.19,17.68.67,26.1,3.65,19.35,6.84,30.61,20.78,34.79,40.6,2.6,12.38,2,24.5-4,36a51.69,51.69,0,0,1-15.56,17.63C312.34,327.67,311.26,328.43,310,329.31Zm-82.58,44.43h0c0,7.24,0,14.49,0,21.73,0,1.84.61,3.08,2.66,3.16.83,0,1.66.14,2.49.13,12.9-.07,25.79-.09,38.69-.26,14.32-.18,22.95-7.72,25-21.65,2.2-14.81-7.29-27.32-22.15-28.36-14.2-1-28.46-.3-42.69-.33-3.22,0-4,1-4,4.36C227.42,359.59,227.45,366.67,227.45,373.74ZM250.19,265c-6.25,0-12.49-.05-18.74,0-3.68,0-4,.4-4,4q0,19,0,38c0,4.85.6,5.48,5.39,5.49,10.59,0,21.17.08,31.75,0,4.65,0,9.33-.21,13.82-1.69,10.47-3.46,16.21-13.24,15-25.57-1-11-8.6-18.28-20.31-19.74C265.51,264.53,257.83,265.2,250.19,265Z" transform="translate(-88.55 -93.55)"/><path class="cls-3" d="M380.1,271.07V175.88c0-7.47,1.18-8.69,8.58-8.24,8.42.52,16.81.26,25.22,0,.66,0,1.33-.05,2,0,4.12.16,5.25,1.27,5.52,5.44.08,1.08.07,2.16.07,3.24,0,30.82.33,61.64-.14,92.44-.22,14.21-.53,28.43-.23,42.63.3,14.64.14,29.28.16,43.92,0,4.66.06,9.32.15,14,.06,3.53-1,4.75-4.53,4.76q-16.11.06-32.23,0c-2.92,0-4.07-1.06-4.38-4-.14-1.41-.14-2.83-.15-4.24V271.07Z" transform="translate(-88.55 -93.55)"/><path class="cls-4" d="M227.45,373.74c0-7.07,0-14.15,0-21.22,0-3.36.81-4.36,4-4.36,14.23,0,28.49-.67,42.69.33,14.86,1,24.35,13.55,22.15,28.36-2.08,13.93-10.71,21.47-25,21.65-12.9.17-25.79.19-38.69.26-.83,0-1.66-.1-2.49-.13-2.05-.08-2.66-1.32-2.66-3.16,0-7.24,0-14.49,0-21.73Z" transform="translate(-88.55 -93.55)"/><path class="cls-1" d="M250.19,265c7.64.25,15.32-.42,23,.52,11.71,1.46,19.26,8.78,20.31,19.74,1.18,12.33-4.56,22.11-15,25.57-4.49,1.48-9.17,1.65-13.82,1.69-10.58.1-21.16,0-31.75,0-4.79,0-5.39-.64-5.39-5.49q0-19,0-38c0-3.64.29-4,4-4C237.7,264.9,243.94,265,250.19,265Z" transform="translate(-88.55 -93.55)"/></svg>