<?xml version="1.0" encoding="UTF-8"?>
<svg id="Layer_2" data-name="Layer 2" xmlns="http://www.w3.org/2000/svg" viewBox="0 0 16 16">
  <defs>
    <style>
      .cls-1 {
        fill: #22ae90;
      }

      .cls-2 {
        fill: #22af90;
      }
    </style>
  </defs>
  <g id="Layer_1-2" data-name="Layer 1">
    <g>
      <path class="cls-2" d="M2.96,9.96c0,1.1,0,2.19,0,3.29,0,.76-.7,1.37-1.53,1.35-.76-.02-1.39-.58-1.43-1.27,0-.06,0-.11,0-.17C0,9.71,0,6.26,0,2.81c0-.5,.17-.92,.63-1.21,.48-.3,1.01-.34,1.53-.1,.53,.24,.8,.66,.8,1.19,.01,1.05,0,2.09,0,3.14,0,.07,0,.14,0,.22,.1-.03,.14-.09,.2-.14,1.98-1.8,3.96-3.61,5.94-5.41,.73-.66,1.59-.66,2.32,0,1.37,1.25,2.74,2.5,4.11,3.75,.61,.56,.63,1.4,.03,1.94-.59,.54-1.52,.52-2.13-.03-1.01-.92-2.03-1.85-3.04-2.78-.12-.11-.17-.1-.28,0-1.64,1.5-3.28,3-4.92,4.49-.12,.11-.1,.16,0,.26,1.64,1.49,3.28,2.98,4.91,4.48,.14,.12,.2,.1,.31,0,1.01-.93,2.02-1.85,3.04-2.78,.42-.38,.92-.5,1.48-.35,.57,.15,.91,.51,1.03,1.04,.09,.43-.01,.84-.36,1.16-1.44,1.32-2.88,2.64-4.33,3.95-.59,.53-1.51,.5-2.11-.05-2-1.82-4-3.64-5.99-5.47-.06-.05-.1-.12-.14-.18l-.07,.04Z"/>
      <path class="cls-1" d="M11.74,8.02c0,.74-.66,1.33-1.47,1.34-.82,0-1.49-.62-1.49-1.37,0-.73,.68-1.34,1.48-1.34,.83,0,1.48,.61,1.48,1.37Z"/>
    </g>
  </g>
</svg>